<svg width="40" height="49" viewBox="0 0 40 49" fill="none" xmlns="http://www.w3.org/2000/svg">
<path d="M20 0.5C13.0871 0.5 7.5 6.08714 7.5 13V17.5H4C2.07933 17.5 0.5 19.0793 0.5 21V45C0.5 46.9207 2.07933 48.5 4 48.5H36C37.9207 48.5 39.5 46.9207 39.5 45V21C39.5 19.0793 37.9207 17.5 36 17.5H32.5V13C32.5 6.08714 26.9129 0.5 20 0.5ZM20 3.5C25.2903 3.5 29.5 7.70974 29.5 13V17.5H10.5V13C10.5 7.70974 14.7097 3.5 20 3.5ZM4 20.5H36C36.2785 20.5 36.5 20.7215 36.5 21V45C36.5 45.2785 36.2785 45.5 36 45.5H4C3.72146 45.5 3.5 45.2785 3.5 45V21C3.5 20.7215 3.72146 20.5 4 20.5ZM20 27.5C18.0246 27.5 16.5 29.0246 16.5 31C16.5 31.9566 16.8877 32.8151 17.5 33.4098V36C17.5 37.3777 18.6223 38.5 20 38.5C21.3777 38.5 22.5 37.3777 22.5 36V33.4098C23.1123 32.8151 23.5 31.9566 23.5 31C23.5 29.0246 21.9754 27.5 20 27.5Z" fill="#34A853" stroke="#34A853"/>
</svg>
