<svg width="28" height="27" viewBox="0 0 28 27" fill="none" xmlns="http://www.w3.org/2000/svg">
<path d="M28 13.5815C27.9991 6.08062 21.7319 0 14 0C6.26807 0 0 6.08152 0 13.5833C0 20.3361 5.07869 25.9375 11.7314 26.9891L11.8117 27V17.5091H8.2566V13.5815H11.8117V10.5906C11.7939 10.4393 11.7846 10.2636 11.7846 10.0861C11.7846 7.43841 13.9972 5.29167 16.7261 5.29167C16.8577 5.29167 16.9884 5.2971 17.1182 5.30616L17.1014 5.30525C18.2207 5.32065 19.3037 5.41667 20.3605 5.58786L20.2354 5.57065V8.91304H18.4691C18.3888 8.90217 18.2963 8.89583 18.203 8.89583C17.0855 8.89583 16.179 9.77446 16.179 10.8596C16.179 10.9212 16.1818 10.9819 16.1874 11.0426L16.1864 11.0344V13.5815H20.0692L19.4484 17.5091H16.1864V27C22.9204 25.9366 27.9991 20.3342 28 13.5815Z" fill="#34A853"/>
</svg>
