<svg width="28" height="27" viewBox="0 0 28 27" fill="none" xmlns="http://www.w3.org/2000/svg">
<path d="M14 27C21.732 27 28 20.9558 28 13.5C28 6.04416 21.732 0 14 0C6.26801 0 0 6.04416 0 13.5C0 20.9558 6.26801 27 14 27Z" fill="#34A853"/>
<path d="M13.9968 22C12.6816 21.999 11.3868 21.6739 10.2272 21.0536C9.06748 20.4333 8.07863 19.5368 7.34808 18.4435C6.61752 17.3502 6.16779 16.0938 6.03866 14.7854C5.90954 13.477 6.105 12.1569 6.60776 10.942C7.11051 9.72712 7.90507 8.6548 8.92113 7.81993C9.93719 6.98505 11.1434 6.41337 12.4331 6.15545C13.7229 5.89753 15.0563 5.96132 16.3155 6.34119C17.5746 6.72105 18.7208 7.40528 19.6524 8.33333C19.8729 8.58683 19.9895 8.91416 19.979 9.24989C19.9684 9.58562 19.8315 9.905 19.5956 10.1442C19.3597 10.3834 19.0421 10.5248 18.7065 10.54C18.3708 10.5553 18.0417 10.4434 17.785 10.2267C17.2876 9.72996 16.6968 9.33643 16.0467 9.06871C15.3966 8.80099 14.7 8.66436 13.9968 8.66666C12.5818 8.66666 11.2247 9.22857 10.2241 10.2288C9.22353 11.229 8.66141 12.5855 8.66141 14C8.66141 15.4145 9.22353 16.771 10.2241 17.7712C11.2247 18.7714 12.5818 19.3333 13.9968 19.3333C15.179 19.3325 16.3274 18.9391 17.2617 18.2152C18.196 17.4912 18.8633 16.4775 19.1589 15.3333H13.9968C13.6431 15.3333 13.3038 15.1929 13.0537 14.9428C12.8035 14.6928 12.663 14.3536 12.663 14C12.663 13.6464 12.8035 13.3072 13.0537 13.0572C13.3038 12.8071 13.6431 12.6667 13.9968 12.6667H20.6661C21.0199 12.6667 21.3592 12.8071 21.6093 13.0572C21.8595 13.3072 22 13.6464 22 14C22 16.1217 21.1568 18.1566 19.6559 19.6569C18.155 21.1571 16.1194 22 13.9968 22Z" fill="white"/>
</svg>
